<svg xmlns="http://www.w3.org/2000/svg" viewBox="0 0 120 100">
  <!-- Crib base -->
  <rect x="10" y="60" width="100" height="35" fill="#FFF" rx="5"/>
  <rect x="10" y="60" width="100" height="35" fill="none" stroke="#DEB887" stroke-width="3" rx="5"/>
  
  <!-- Mattress -->
  <rect x="15" y="65" width="90" height="25" fill="#E6E6FA" rx="3"/>
  
  <!-- Side rails -->
  <rect x="5" y="30" width="5" height="65" fill="#DEB887" rx="2"/>
  <rect x="110" y="30" width="5" height="65" fill="#DEB887" rx="2"/>
  
  <!-- Rail bars -->
  <g fill="#DEB887">
    <rect x="15" y="35" width="3" height="25" rx="1"/>
    <rect x="28" y="35" width="3" height="25" rx="1"/>
    <rect x="41" y="35" width="3" height="25" rx="1"/>
    <rect x="54" y="35" width="3" height="25" rx="1"/>
    <rect x="67" y="35" width="3" height="25" rx="1"/>
    <rect x="80" y="35" width="3" height="25" rx="1"/>
    <rect x="93" y="35" width="3" height="25" rx="1"/>
    <rect x="103" y="35" width="3" height="25" rx="1"/>
  </g>
  
  <!-- Top rail -->
  <rect x="5" y="30" width="110" height="5" fill="#DEB887" rx="2"/>
  
  <!-- Decorative hearts -->
  <g fill="#FFB6C1" opacity="0.5">
    <path d="M25,42 C25,38 30,38 30,42 C30,38 35,38 35,42 C35,48 30,52 30,52 C30,52 25,48 25,42"/>
    <path d="M85,42 C85,38 90,38 90,42 C90,38 95,38 95,42 C95,48 90,52 90,52 C90,52 85,48 85,42"/>
  </g>
</svg>
