<svg xmlns="http://www.w3.org/2000/svg" viewBox="0 0 80 100">
  <!-- Body -->
  <ellipse cx="40" cy="65" rx="25" ry="30" fill="#D2691E"/>
  
  <!-- Head -->
  <circle cx="40" cy="28" r="22" fill="#D2691E"/>
  
  <!-- Ears -->
  <circle cx="20" cy="12" r="10" fill="#D2691E"/>
  <circle cx="20" cy="12" r="6" fill="#F4A460"/>
  <circle cx="60" cy="12" r="10" fill="#D2691E"/>
  <circle cx="60" cy="12" r="6" fill="#F4A460"/>
  
  <!-- Snout -->
  <ellipse cx="40" cy="35" rx="10" ry="8" fill="#F4A460"/>
  
  <!-- Nose -->
  <ellipse cx="40" cy="32" rx="4" ry="3" fill="#333"/>
  
  <!-- Eyes -->
  <circle cx="32" cy="24" r="4" fill="#333"/>
  <circle cx="48" cy="24" r="4" fill="#333"/>
  <circle cx="33" cy="23" r="1.5" fill="#FFF"/>
  <circle cx="49" cy="23" r="1.5" fill="#FFF"/>
  
  <!-- Mouth -->
  <path d="M36,38 Q40,42 44,38" stroke="#333" stroke-width="2" fill="none"/>
  
  <!-- Arms -->
  <ellipse cx="15" cy="55" rx="8" ry="15" fill="#D2691E"/>
  <ellipse cx="65" cy="55" rx="8" ry="15" fill="#D2691E"/>
  
  <!-- Legs -->
  <ellipse cx="28" cy="90" rx="10" ry="8" fill="#D2691E"/>
  <ellipse cx="52" cy="90" rx="10" ry="8" fill="#D2691E"/>
  
  <!-- Belly -->
  <ellipse cx="40" cy="65" rx="15" ry="18" fill="#F4A460"/>
  
  <!-- Bow -->
  <circle cx="40" cy="48" r="4" fill="#FF69B4"/>
  <path d="M30,48 Q35,42 40,48 Q35,54 30,48" fill="#FF69B4"/>
  <path d="M50,48 Q45,42 40,48 Q45,54 50,48" fill="#FF69B4"/>
</svg>
