<svg xmlns="http://www.w3.org/2000/svg" viewBox="0 0 80 80">
  <!-- Body -->
  <ellipse cx="40" cy="55" rx="25" ry="20" fill="#FFA500"/>
  
  <!-- Head -->
  <circle cx="40" cy="28" r="20" fill="#FFA500"/>
  
  <!-- Ears -->
  <polygon points="25,15 20,0 35,10" fill="#FFA500"/>
  <polygon points="55,15 60,0 45,10" fill="#FFA500"/>
  <polygon points="27,13 23,3 33,10" fill="#FFB6C1"/>
  <polygon points="53,13 57,3 47,10" fill="#FFB6C1"/>
  
  <!-- Eyes (sad/hungry look) -->
  <ellipse cx="32" cy="25" rx="6" ry="8" fill="white"/>
  <ellipse cx="48" cy="25" rx="6" ry="8" fill="white"/>
  <circle cx="32" cy="27" r="4" fill="#333"/>
  <circle cx="48" cy="27" r="4" fill="#333"/>
  <!-- Sad eyebrows -->
  <path d="M26,18 L38,22" stroke="#333" stroke-width="2" stroke-linecap="round"/>
  <path d="M54,18 L42,22" stroke="#333" stroke-width="2" stroke-linecap="round"/>
  
  <!-- Nose -->
  <ellipse cx="40" cy="35" rx="4" ry="3" fill="#FFB6C1"/>
  
  <!-- Sad mouth -->
  <path d="M35,42 Q40,38 45,42" fill="none" stroke="#333" stroke-width="2" stroke-linecap="round"/>
  
  <!-- Whiskers -->
  <g stroke="#333" stroke-width="1">
    <line x1="20" y1="32" x2="30" y2="35"/>
    <line x1="20" y1="38" x2="30" y2="38"/>
    <line x1="50" y1="35" x2="60" y2="32"/>
    <line x1="50" y1="38" x2="60" y2="38"/>
  </g>
  
  <!-- Tail -->
  <path d="M65,55 Q80,45 75,65" stroke="#FFA500" stroke-width="8" fill="none" stroke-linecap="round"/>
  
  <!-- Front paws -->
  <ellipse cx="30" cy="72" rx="8" ry="5" fill="#FFA500"/>
  <ellipse cx="50" cy="72" rx="8" ry="5" fill="#FFA500"/>
</svg>
