<svg xmlns="http://www.w3.org/2000/svg" viewBox="0 0 80 120">
  <!-- Body -->
  <path d="M25,55 L22,110 L58,110 L55,55 Z" fill="#FF69B4"/>
  
  <!-- Apron -->
  <path d="M28,60 L25,100 L55,100 L52,60 Z" fill="#FFF"/>
  <rect x="35" y="62" width="10" height="8" fill="#FF69B4"/>
  
  <!-- Arms -->
  <path d="M25,60 L12,80" stroke="#FFDAB9" stroke-width="10" stroke-linecap="round"/>
  <path d="M55,60 L68,80" stroke="#FFDAB9" stroke-width="10" stroke-linecap="round"/>
  
  <!-- Hands -->
  <circle cx="12" cy="82" r="7" fill="#FFDAB9"/>
  <circle cx="68" cy="82" r="7" fill="#FFDAB9"/>
  
  <!-- Head -->
  <circle cx="40" cy="30" r="22" fill="#FFDAB9"/>
  
  <!-- Hair -->
  <path d="M20,22 Q20,0 40,5 Q60,0 60,22" fill="#8B4513"/>
  <path d="M18,25 Q12,30 18,45" fill="#8B4513"/>
  <path d="M62,25 Q68,30 62,45" fill="#8B4513"/>
  
  <!-- Happy eyes -->
  <path d="M28,26 Q32,22 36,26" stroke="#333" stroke-width="2" fill="none"/>
  <path d="M44,26 Q48,22 52,26" stroke="#333" stroke-width="2" fill="none"/>
  
  <!-- CLOWN NOSE! -->
  <circle cx="40" cy="35" r="10" fill="#FF0000"/>
  <circle cx="36" cy="32" r="3" fill="#FF6B6B"/>
  
  <!-- Big smile -->
  <path d="M30,44 Q40,55 50,44" stroke="#333" stroke-width="2" fill="none"/>
  
  <!-- Blush -->
  <ellipse cx="24" cy="38" rx="5" ry="3" fill="#FFB6C1" opacity="0.6"/>
  <ellipse cx="56" cy="38" rx="5" ry="3" fill="#FFB6C1" opacity="0.6"/>
  
  <!-- Funny expression lines -->
  <path d="M22,20 L18,15" stroke="#333" stroke-width="1"/>
  <path d="M58,20 L62,15" stroke="#333" stroke-width="1"/>
  
  <!-- Legs -->
  <rect x="28" y="105" width="8" height="15" fill="#FFDAB9"/>
  <rect x="44" y="105" width="8" height="15" fill="#FFDAB9"/>
  
  <!-- Shoes -->
  <ellipse cx="32" cy="118" rx="8" ry="4" fill="#FF69B4"/>
  <ellipse cx="48" cy="118" rx="8" ry="4" fill="#FF69B4"/>
</svg>
